<?xml version="1.0" encoding="UTF-8"?>
<svg version="1.1" xmlns="http://www.w3.org/2000/svg" width="1254" height="1254">
<path d="M0 0 C413.82 0 827.64 0 1254 0 C1254 413.82 1254 827.64 1254 1254 C840.18 1254 426.36 1254 0 1254 C0 840.18 0 426.36 0 0 Z " fill="#FDFDFD" transform="translate(0,0)"/>
<path d="M0 0 C36.3 0 72.6 0 110 0 C110 80.52 110 161.04 110 244 C165.44 244 220.88 244 278 244 C278 163.48 278 82.96 278 0 C343.45329827 -0.12099405 343.45329827 -0.12099405 370.9296875 -0.14648438 C377.21712263 -0.15235663 383.50455754 -0.15841768 389.79199219 -0.16479492 C390.57985249 -0.16558617 391.36771279 -0.16637741 392.17944765 -0.16719264 C404.84380724 -0.18018587 417.50812532 -0.20380662 430.17246042 -0.23145839 C443.20162636 -0.2596662 456.2307708 -0.27620847 469.25996602 -0.28226548 C477.27818308 -0.28635032 485.29628281 -0.29917738 493.31446369 -0.3237494 C499.49726973 -0.34171383 505.6799892 -0.34332741 511.86281776 -0.33932304 C514.37394361 -0.3401384 516.88507451 -0.3459698 519.39617348 -0.35761642 C541.39495537 -0.45451502 563.76091298 0.05297807 584.625 7.6875 C585.89738487 8.13421387 587.17009657 8.57999783 588.44311523 9.02490234 C597.69960407 12.30991459 606.5027495 16.07738602 615 21 C616.12792969 21.64582031 617.25585938 22.29164063 618.41796875 22.95703125 C630.14555951 29.92759223 640.66155845 38.15814401 650.50439453 47.57177734 C651.49228342 48.51515802 652.48538081 49.45311792 653.48388672 50.38525391 C682.67166578 77.66759932 699.23528557 114.1210998 706 153 C706.176521 153.92377441 706.35304199 154.84754883 706.53491211 155.79931641 C710.36060717 182.12732811 706.53195657 210.05525331 698 235 C697.5978125 236.18078125 697.195625 237.3615625 696.78125 238.578125 C691.08310923 254.20951117 682.90092043 271.76050174 671.93359375 284.3515625 C670.8159239 285.97387229 670.8159239 285.97387229 671.12890625 287.98828125 C672.20205273 290.46662402 673.51196259 291.73618785 675.5 293.5625 C680.46896977 298.35400657 684.75129274 303.56734962 689 309 C689.98806641 310.26263672 689.98806641 310.26263672 690.99609375 311.55078125 C703.5620336 328.21266125 712.44540136 346.57282765 718.3125 366.5625 C718.54291992 367.33948242 718.77333984 368.11646484 719.01074219 368.91699219 C723.30512713 384.41083038 724.60752283 399.85384084 724.5625 415.875 C724.56334595 416.80700226 724.56419189 417.73900452 724.56506348 418.69924927 C724.52053625 441.86305671 721.06356118 465.31450992 710 486 C709.38657086 487.24868502 708.77849517 488.5000141 708.17578125 489.75390625 C700.93825398 504.61782552 693.03880495 517.6575325 682 530 C680.87477675 531.33314494 679.74974588 532.66645229 678.625 534 C658.32187088 556.84702 633.84502662 572.82656928 605 583 C604.28473145 583.25362305 603.56946289 583.50724609 602.83251953 583.76855469 C585.95632155 589.64370747 568.83069484 592.16841453 550.97775269 592.12025452 C549.80539601 592.12110894 548.63303934 592.12196337 547.42515671 592.12284368 C544.19828647 592.12419814 540.97145713 592.12110295 537.74459171 592.11606562 C534.25461904 592.11172403 530.76464808 592.11321017 527.27467346 592.1139679 C521.23706492 592.11449079 515.19946723 592.11136854 509.16186142 592.10573006 C500.43263017 592.09758321 491.70340414 592.09499658 482.97416951 592.09374207 C468.80959962 592.09155655 454.64503551 592.08491002 440.48046875 592.07543945 C426.72558623 592.0662524 412.97070528 592.05918937 399.21582031 592.05493164 C398.35851192 592.05466364 397.50120354 592.05439565 396.61791611 592.05411953 C389.91263043 592.05203995 383.20734471 592.05008308 376.50205898 592.04816496 C343.66803402 592.03874106 310.83402353 592.01862043 278 592 C278 511.81 278 431.62 278 349 C279.91725685 351.87588528 280.81755456 354.12504817 281.8828125 357.3828125 C282.24109131 358.45934082 282.59937012 359.53586914 282.96850586 360.64501953 C283.35014893 361.79341309 283.73179199 362.94180664 284.125 364.125 C291.84136692 386.78183104 302.03121572 406.10309625 318 424 C318.62648438 424.74765625 319.25296875 425.4953125 319.8984375 426.265625 C337.56463353 447.33235641 361.96094509 459.90963459 387 470 C387 482.87 387 495.74 387 509 C404.78579356 508.91439099 422.57148334 508.82071208 440.35715103 508.71247292 C448.61633728 508.66246544 456.87551419 508.61602171 465.13476562 508.578125 C472.33802658 508.54506438 479.54121244 508.50515673 486.74439025 508.45720994 C490.55432379 508.432084 494.36420842 508.41026266 498.17420197 508.39665604 C501.76932518 508.3837082 505.36427942 508.36152071 508.95930862 508.33261681 C510.88927173 508.31939868 512.81929262 508.3156443 514.7492981 508.31230164 C545.15092138 508.02411056 571.67416672 495.51249995 593.5625 474.8125 C615.76857919 451.9323077 625.50107621 421.56790121 625.1484375 390.203125 C624.49309786 361.04588257 613.18042129 335.89247404 594 314 C593.33613281 313.23945312 592.67226563 312.47890625 591.98828125 311.6953125 C583.55248464 302.66499308 572.73736193 295.98224451 562 290 C562 289.34 562 288.68 562 288 C563.6171875 286.80859375 563.6171875 286.80859375 565.875 285.4375 C588.60332721 270.72464869 602.23811357 247.39660879 608.2734375 221.5234375 C613.77754036 194.83149781 609.96056394 166.71308806 595.13134766 143.68505859 C591.69432792 138.5658721 587.93977196 133.739526 584 129 C583.46246094 128.34644531 582.92492187 127.69289063 582.37109375 127.01953125 C576.40341139 120.45975508 568.40345747 115.76432972 561 111 C559.9584375 110.32324219 558.916875 109.64648438 557.84375 108.94921875 C538.68090454 97.57758282 517.334837 97.09966673 495.70118952 97.18970728 C491.86416963 97.1992412 488.02735343 97.17449764 484.19039917 97.15377808 C476.96264834 97.11975821 469.73521524 97.11545193 462.50740039 97.12250316 C454.26269659 97.12904855 446.01820982 97.10143068 437.77357125 97.07130075 C420.84895812 97.01019673 403.92474224 96.99533882 387 97 C387 114.82 387 132.64 387 151 C382.05 152.98 382.05 152.98 377 155 C366.02902196 159.76156761 355.75289219 165.05735854 346 172 C345.43748535 172.40025391 344.8749707 172.80050781 344.29541016 173.21289062 C322.65760042 188.87548302 305.9956622 209.20354064 294 233 C293.65630371 233.67933594 293.31260742 234.35867188 292.95849609 235.05859375 C284.82453465 251.4562936 278.77470216 269.72536429 277 288 C276.9160498 288.6919043 276.83209961 289.38380859 276.74560547 290.09667969 C275.92554769 297.23855856 275.85126688 304.31677465 275.875 311.5 C275.87113281 312.63953125 275.86726563 313.7790625 275.86328125 314.953125 C275.87410711 324.6964009 276.45722155 334.22998784 277 344 C221.89 344 166.78 344 110 344 C110 425.51 110 507.02 110 591 C73.7 591 37.4 591 0 591 C0 395.97 0 200.94 0 0 Z " fill="#0261C9" transform="translate(277,219)"/>
<path d="M0 0 C36.3 0 72.6 0 110 0 C110 80.52 110 161.04 110 244 C168.74 244 227.48 244 288 244 C286.30889297 250.20072578 284.62250214 256.30119966 282.70385742 262.41845703 C280.05999171 270.89331425 277.92136248 279.14159929 277 288 C276.87189941 289.04655762 276.87189941 289.04655762 276.74121094 290.11425781 C275.92267886 297.24965934 275.8512889 304.3234404 275.875 311.5 C275.87113281 312.63953125 275.86726563 313.7790625 275.86328125 314.953125 C275.87410711 324.6964009 276.45722155 334.22998784 277 344 C221.89 344 166.78 344 110 344 C110 425.51 110 507.02 110 591 C73.7 591 37.4 591 0 591 C0 395.97 0 200.94 0 0 Z " fill="#21384D" transform="translate(277,219)"/>
<path d="M0 0 C3.56236008 1.49570875 5.72604957 3.52848599 8.3125 6.375 C9.03050781 7.14585937 9.74851562 7.91671875 10.48828125 8.7109375 C12 11 12 11 11.76342773 12.97875977 C10.4747073 16.39075736 7.50520501 18.31751814 4.75 20.5625 C3.80543945 21.35140625 3.80543945 21.35140625 2.84179688 22.15625 C1.5349188 23.24727734 0.22498501 24.33465422 -1.08789062 25.41845703 C-3.91252549 27.75476763 -6.70523817 30.12812408 -9.5 32.5 C-10.57544262 33.40894672 -11.65096406 34.31780018 -12.7265625 35.2265625 C-19.80212061 41.21422699 -26.84092687 47.24596996 -33.83203125 53.33203125 C-40.18103276 58.85869814 -46.56234117 64.3120903 -53.10546875 69.609375 C-57.3684582 73.13022459 -61.53363357 76.76129979 -65.69921875 80.39648438 C-66.29992187 80.92048828 -66.900625 81.44449219 -67.51953125 81.984375 C-68.09977051 82.49709961 -68.68000977 83.00982422 -69.27783203 83.53808594 C-71 85 -71 85 -72.76513672 86.28222656 C-75.6235616 88.38825659 -76.89527594 89.46811199 -77.59375 93.015625 C-77.5628125 94.08296875 -77.531875 95.1503125 -77.5 96.25 C-77.75832965 104.39660998 -80.7685999 108.92622917 -86.5625 114.4375 C-91.96315925 117.89946106 -96.64670615 118.83931474 -103 118 C-110.07276139 115.85245245 -114.22538799 111.17086837 -118.2109375 105.1796875 C-119.30730729 102.15110165 -118.67178355 99.80292088 -118.25 96.625 C-118.14293551 91.73062334 -118.6940303 88.90823207 -121.86328125 85.25 C-124.87984714 82.16162094 -128.09326427 79.30010094 -131.3515625 76.47021484 C-133.27101249 74.75828833 -134.93044885 72.92343979 -136.5625 70.9375 C-140.16116542 66.67953709 -144.13491474 62.81088762 -148.11938477 58.91772461 C-150.97919278 56.1033173 -153.69845477 53.23266535 -156.3125 50.1875 C-160.46685658 45.37985589 -164.97375873 40.95473666 -169.5 36.5 C-174.69668439 31.38541173 -179.78516224 26.26182873 -184.51586914 20.70898438 C-186.56559459 18.3487149 -188.75654365 16.17547282 -191 14 C-189.46356148 10.31930113 -187.21849055 8.01224796 -184.375 5.25 C-183.55773437 4.45078125 -182.74046875 3.6515625 -181.8984375 2.828125 C-181.27195312 2.22484375 -180.64546875 1.6215625 -180 1 C-175.77362683 2.59618369 -173.2307778 5.77074239 -170.3125 9.0625 C-169.24373436 10.24619018 -168.17341089 11.42847557 -167.1015625 12.609375 C-166.31313965 13.47852539 -166.31313965 13.47852539 -165.50878906 14.36523438 C-163.46482396 16.57986064 -161.3366543 18.70027275 -159.1875 20.8125 C-156.54612409 23.41607446 -154.03426635 26.05564576 -151.625 28.875 C-148.737852 32.24557743 -145.65753002 35.38503864 -142.5 38.5 C-138.78153524 42.16846859 -135.2633181 45.93149223 -131.875 49.90625 C-129.06744806 53.04134966 -126.05478078 55.96630814 -123.06005859 58.92041016 C-120.3045281 61.65306526 -117.66223717 64.43889585 -115.125 67.375 C-114.57199219 68.00148438 -114.01898437 68.62796875 -113.44921875 69.2734375 C-112 71 -112 71 -109.9375 74 C-105.57607001 76.96948425 -101.52660523 76.27468758 -96.375 75.98046875 C-93.01092618 75.99993677 -90.99027565 76.53317918 -88 78 C-88 77.34 -88 76.68 -88 76 C-86.44759659 74.60674046 -84.82970015 73.28619872 -83.1875 72 C-79.16052706 68.78254658 -75.28942988 65.49961778 -71.5 62 C-67.05272888 57.90648909 -62.45282537 54.07557501 -57.75 50.28125 C-53.96094593 47.13805742 -50.36730648 43.79841405 -46.74609375 40.46484375 C-44.08124834 38.07292703 -41.35168175 35.80745116 -38.5625 33.5625 C-34.56775746 30.34056683 -30.75447891 26.99342389 -27 23.5 C-22.38111497 19.20268763 -17.6078012 15.17229121 -12.69140625 11.21484375 C-8.32840573 7.62439194 -4.16251677 3.81940259 0 0 Z " fill="#233A50" transform="translate(815,448)"/>
<path d="M0 0 C5.28 0 10.56 0 16 0 C19.40193221 3.44239126 20.67763642 5.13189331 22.5625 9.3125 C23.51593788 11.15025313 24.47035911 12.98749643 25.42578125 14.82421875 C25.86229004 15.71544434 26.29879883 16.60666992 26.74853516 17.52490234 C28.37071551 20.73318648 30.24819984 23.64028001 32.25 26.625 C35 30.77619048 35 30.77619048 35 33 C35.66 33 36.32 33 37 33 C37.27618164 32.26426758 37.55236328 31.52853516 37.83691406 30.77050781 C38.91506196 28.20232511 40.11581228 26.01557065 41.609375 23.671875 C42.37121094 22.47111328 42.37121094 22.47111328 43.1484375 21.24609375 C43.67695312 20.42238281 44.20546875 19.59867188 44.75 18.75 C45.51957031 17.53763672 45.51957031 17.53763672 46.3046875 16.30078125 C47.34281673 14.67055319 48.39833031 13.05126868 49.47070312 11.44335938 C51.05396099 9.02999197 51.05396099 9.02999197 52.20117188 6.38476562 C53.453125 3.890625 53.453125 3.890625 57 0 C61.95 0 66.9 0 72 0 C72 24.09 72 48.18 72 73 C67.05 73 62.1 73 57 73 C56.67 58.81 56.34 44.62 56 30 C53.793125 33.465 51.58625 36.93 49.3125 40.5 C48.62712158 41.57572266 47.94174316 42.65144531 47.2355957 43.75976562 C46.67960693 44.63310547 46.12361816 45.50644531 45.55078125 46.40625 C44.94572754 47.35371094 44.34067383 48.30117188 43.71728516 49.27734375 C42.62565106 51.00806645 41.55038668 52.74930683 40.49755859 54.50390625 C39.37989208 56.36572605 38.19707281 58.18821412 37 60 C36.34 60 35.68 60 35 60 C33.62157599 58.01956961 32.37850618 56.05526558 31.15625 53.98046875 C30.78649048 53.36609451 30.41673096 52.75172028 30.0357666 52.11872864 C28.85026934 50.1456988 27.67497005 48.16681357 26.5 46.1875 C25.3228031 44.22029774 24.143598 42.25430961 22.9642334 40.28840637 C22.23013506 39.0629664 21.49773015 37.83651003 20.76721191 36.6089325 C19.23092685 34.02953583 17.66596721 31.49895081 16 29 C15.67 43.52 15.34 58.04 15 73 C10.05 73 5.1 73 0 73 C0 48.91 0 24.82 0 0 Z " fill="#253B51" transform="translate(672,886)"/>
<path d="M0 0 C38.84018265 0 38.84018265 0 46.20703125 5.7109375 C46.73683594 6.26007812 47.26664063 6.80921875 47.8125 7.375 C48.35519531 7.91898438 48.89789062 8.46296875 49.45703125 9.0234375 C54.7825134 15.84544754 55.0121684 22.64483632 54 31 C51.75422773 37.17107508 46.851877 42.0740615 41 45 C42.30748447 48.48688291 43.84000759 51.58481092 45.78515625 54.7578125 C46.31560547 55.63050781 46.84605469 56.50320313 47.39257812 57.40234375 C47.94365234 58.30082031 48.49472656 59.19929687 49.0625 60.125 C50.16025549 61.91761814 51.25542766 63.71182152 52.34765625 65.5078125 C52.83242432 66.29816895 53.31719238 67.08852539 53.81665039 67.90283203 C55 70 55 70 56 73 C50.72 73 45.44 73 40 73 C39.15695312 71.51886719 38.31390625 70.03773438 37.4453125 68.51171875 C36.33859864 66.57028002 35.23182468 64.62887555 34.125 62.6875 C33.29162109 61.22280273 33.29162109 61.22280273 32.44140625 59.72851562 C31.90644531 58.79072266 31.37148438 57.85292969 30.8203125 56.88671875 C30.32805176 56.02264404 29.83579102 55.15856934 29.32861328 54.26831055 C28.27874547 52.47589565 27.15225179 50.72837768 26 49 C22.04 48.67 18.08 48.34 14 48 C14 56.25 14 64.5 14 73 C9.38 73 4.76 73 0 73 C0 48.91 0 24.82 0 0 Z " fill="#23394F" transform="translate(539,886)"/>
<path d="M0 0 C13 0 13 0 16.4375 3.0859375 C17.33684255 4.48764718 18.18938888 5.9201747 19 7.375 C19.97674235 8.93251255 20.95600096 10.48844935 21.9375 12.04296875 C22.43121094 12.85556152 22.92492187 13.6681543 23.43359375 14.50537109 C26.07837386 18.71739777 29.05004949 22.68625505 32 26.6875 C33.06462969 28.14818972 34.12724091 29.61035348 35.1875 31.07421875 C35.63480469 31.68869873 36.08210938 32.30317871 36.54296875 32.9362793 C38.41487341 35.58762147 40.19968871 38.29953307 42 41 C42.33 27.47 42.66 13.94 43 0 C47.95 0 52.9 0 58 0 C58 24.09 58 48.18 58 73 C46 73 46 73 42.87890625 70.1328125 C42.06492242 68.82195308 41.29450879 67.48333915 40.5625 66.125 C39.66884019 64.65803329 38.77155058 63.19327313 37.87109375 61.73046875 C37.41202637 60.95880371 36.95295898 60.18713867 36.47998047 59.39208984 C33.91686445 55.2493299 31.01021583 51.35943051 28.125 47.4375 C26.56583348 45.29308893 25.00923036 43.1468523 23.45410156 40.99951172 C22.47832629 39.6577388 21.49579426 38.32085564 20.50683594 36.98876953 C17 32.21646609 17 32.21646609 17 30 C16.34 30 15.68 30 15 30 C15 44.19 15 58.38 15 73 C10.05 73 5.1 73 0 73 C0 48.91 0 24.82 0 0 Z " fill="#273D52" transform="translate(107,886)"/>
<path d="M0 0 C6.27 0 12.54 0 19 0 C22.36201166 6.72402333 22.36201166 6.72402333 23.40942383 10.05883789 C24.60063672 13.76194258 25.82596582 17.44980493 27.0847168 21.13061523 C27.46488449 22.24464218 27.84505219 23.35866913 28.23674011 24.50645447 C28.83691704 26.26476341 28.83691704 26.26476341 29.44921875 28.05859375 C30.52583957 31.21898339 31.60213912 34.37948207 32.67827129 37.54003811 C33.79973333 40.83310996 34.92231137 44.12579392 36.04711914 47.41772461 C36.93069807 50.00383162 37.81269052 52.59046844 38.69282532 55.17774963 C39.51955229 57.60802912 40.3485815 60.03752685 41.18009949 62.46617126 C41.5508107 63.55813309 41.92152191 64.65009491 42.3034668 65.77514648 C42.79619331 67.22001686 42.79619331 67.22001686 43.2988739 68.69407654 C44 71 44 71 44 73 C38.72 73 33.44 73 28 73 C24 62.375 24 62.375 24 59 C14.43 59 4.86 59 -5 59 C-5.33 60.98 -5.66 62.96 -6 65 C-6.87997689 67.72656051 -7.9426227 70.33357029 -9 73 C-14.28 73 -19.56 73 -25 73 C-22.51723 63.06892 -19.14272376 53.48991352 -15.74951172 43.84228516 C-14.76251616 41.03559186 -13.78115114 38.22698232 -12.80078125 35.41796875 C-8.65483722 23.56572199 -4.36915565 11.77181833 0 0 Z " fill="#253B51" transform="translate(203,886)"/>
<path d="M0 0 C0.79075928 0.00523682 1.58151855 0.01047363 2.39624023 0.01586914 C3.67724609 0.02070312 3.67724609 0.02070312 4.98413086 0.02563477 C5.88196289 0.03401367 6.77979492 0.04239258 7.70483398 0.05102539 C8.6065332 0.05553711 9.50823242 0.06004883 10.43725586 0.06469727 C12.67234712 0.07652315 14.90730835 0.09300319 17.14233398 0.11352539 C18.25038373 3.23716173 19.35302936 6.36268129 20.45483398 9.48852539 C20.91792969 10.79370117 20.91792969 10.79370117 21.39038086 12.12524414 C23.23334178 17.36313308 24.91050855 22.62192198 26.47900391 27.94799805 C27.23092527 30.40274315 28.13121502 32.75424782 29.14233398 35.11352539 C30.8370262 39.22187015 32.13416763 43.34599026 33.36108398 47.61352539 C34.16306634 50.17986892 35.11725185 52.62847779 36.14233398 55.11352539 C41.14233398 67.28660231 41.14233398 67.28660231 41.14233398 73.11352539 C36.19233398 73.11352539 31.24233398 73.11352539 26.14233398 73.11352539 C22.14233398 62.48852539 22.14233398 62.48852539 22.14233398 59.11352539 C12.24233398 59.11352539 2.34233398 59.11352539 -7.85766602 59.11352539 C-8.51766602 62.74352539 -9.17766602 66.37352539 -9.85766602 70.11352539 C-10.51766602 71.10352539 -11.17766602 72.09352539 -11.85766602 73.11352539 C-14.48463665 73.33489932 -16.86660566 73.39514564 -19.48266602 73.30102539 C-20.18907227 73.28749023 -20.89547852 73.27395508 -21.62329102 73.26000977 C-23.36840729 73.22463579 -25.11313209 73.1708276 -26.85766602 73.11352539 C-26.25445461 67.10586586 -24.53786804 61.83632352 -22.48266602 56.17602539 C-22.02633789 54.89308594 -22.02633789 54.89308594 -21.56079102 53.58422852 C-20.22043144 49.8295033 -18.8488925 46.08851245 -17.43969727 42.35913086 C-15.81017622 38.02057464 -14.27695344 33.65130523 -12.75610352 29.27368164 C-12.17809505 27.61804199 -11.59996669 25.9624442 -11.02172852 24.30688477 C-10.12070753 21.72423818 -9.22059118 19.14128756 -8.32250977 16.55761719 C-7.44877748 14.04540045 -6.571482 11.53445198 -5.69360352 9.02368164 C-5.42381683 8.24460953 -5.15403015 7.46553741 -4.87606812 6.66285706 C-2.59682422 0.15869671 -2.59682422 0.15869671 0 0 Z " fill="#243A50" transform="translate(844.857666015625,885.886474609375)"/>
<path d="M0 0 C1.48831242 0.00667405 2.97660807 0.01863442 4.46484375 0.03515625 C5.22345703 0.03966797 5.98207031 0.04417969 6.76367188 0.04882812 C8.64326246 0.06064945 10.52281274 0.07858547 12.40234375 0.09765625 C10.76972663 5.08349297 7.84838645 8.9929765 4.83984375 13.22265625 C3.83522905 14.63958422 2.83378575 16.05876751 1.8359375 17.48046875 C1.39306396 18.10324707 0.95019043 18.72602539 0.49389648 19.36767578 C-0.77108828 21.21996046 -0.77108828 21.21996046 -1.59765625 24.09765625 C-0.60765625 23.99453125 0.38234375 23.89140625 1.40234375 23.78515625 C7.52951872 23.78515625 11.87856272 27.70932242 16.21484375 31.66015625 C22.04103192 38.1521945 22.8230113 42.74328303 22.7421875 51.4453125 C22.0917221 58.43594637 19.18552902 63.75502948 14.08984375 68.53515625 C5.6755368 74.85483785 -3.46409788 75.1852621 -13.59765625 74.09765625 C-19.9884698 71.99656686 -24.81227665 66.49949525 -28.59765625 61.09765625 C-31.4521119 55.24458053 -31.49427979 49.47058052 -30.59765625 43.09765625 C-27.78659058 35.41296784 -23.53255277 28.59897416 -18.703125 22.0234375 C-15.18894994 17.14010332 -11.91548792 12.09461401 -8.59692383 7.07714844 C-8.09443115 6.31950195 -7.59193848 5.56185547 -7.07421875 4.78125 C-6.62127441 4.09603271 -6.16833008 3.41081543 -5.70166016 2.70483398 C-3.916684 0.10631607 -3.916684 0.10631607 0 0 Z " fill="#0963C7" transform="translate(925.59765625,885.90234375)"/>
<path d="M0 0 C4.95 0 9.9 0 15 0 C15 9.57 15 19.14 15 29 C24.24 29 33.48 29 43 29 C43 19.43 43 9.86 43 0 C47.95 0 52.9 0 58 0 C58 24.09 58 48.18 58 73 C53.05 73 48.1 73 43 73 C43 63.1 43 53.2 43 43 C33.76 43 24.52 43 15 43 C15 52.9 15 62.8 15 73 C10.05 73 5.1 73 0 73 C0 48.91 0 24.82 0 0 Z " fill="#263C52" transform="translate(325,886)"/>
<path d="M0 0 C15.18 0 30.36 0 46 0 C46 4.62 46 9.24 46 14 C35.77 14 25.54 14 15 14 C15 18.95 15 23.9 15 29 C24.24 29 33.48 29 43 29 C43 33.62 43 38.24 43 43 C33.76 43 24.52 43 15 43 C15 48.28 15 53.56 15 59 C25.23 59 35.46 59 46 59 C46 63.62 46 68.24 46 73 C30.82 73 15.64 73 0 73 C0 48.91 0 24.82 0 0 Z " fill="#253B51" transform="translate(402,886)"/>
<path d="M0 0 C1.08039551 -0.00930542 1.08039551 -0.00930542 2.18261719 -0.01879883 C11.14879481 0.19150625 17.329567 4.21323113 23.4375 10.5 C25.4375 13.4375 25.4375 13.4375 26.4375 15.5 C23.44630429 18.83633368 20.56109889 20.74527707 16.4375 22.5 C15.4475 22.5 14.4575 22.5 13.4375 22.5 C12.19726283 20.99866027 10.95946926 19.49498501 9.75 17.96875 C6.95546422 14.84153139 3.95989583 14.55597098 -0.0625 14.125 C-4.23187699 14.57171896 -5.82003104 15.34200543 -8.5625 18.5 C-9.22930368 21.54279372 -9.22930368 21.54279372 -8.5625 24.5 C-6.47570481 27.11709891 -4.62094656 28.02292707 -1.4296875 28.89453125 C-0.62748779 29.12454834 0.17471191 29.35456543 1.0012207 29.59155273 C1.84644287 29.82946533 2.69166504 30.06737793 3.5625 30.3125 C10.64286987 32.43561606 16.81747076 34.51285693 22.4375 39.5 C23.05109375 39.98726562 23.6646875 40.47453125 24.296875 40.9765625 C28.18027851 44.59275935 28.87399134 47.67141926 29.0625 52.9375 C28.70816614 59.65443753 27.54563364 64.42694688 22.70703125 69.2109375 C15.1296342 75.41200095 7.0838844 77.33815346 -2.5625 76.5 C-10.59166107 75.64698626 -16.92711762 72.38970954 -22.4609375 66.46875 C-26.5625 61.30809859 -26.5625 61.30809859 -26.5625 56.5 C-22.6025 54.52 -18.6425 52.54 -14.5625 50.5 C-13.716875 51.77875 -12.87125 53.0575 -12 54.375 C-9.78191121 57.3014295 -8.7253697 58.42482937 -5.3125 60 C3.38773703 61.29004615 3.38773703 61.29004615 11.5625 58.8125 C13.61652534 56.64900805 13.61652534 56.64900805 13.9375 53.9375 C13.32940435 50.97303372 12.89866836 50.24663561 10.4375 48.5 C6.07556046 46.31903023 1.68292459 44.97615669 -3 43.625 C-12.16813738 40.84613861 -18.76634134 37.02672892 -23.67578125 28.5859375 C-25.74867067 23.70962495 -24.93115796 18.66418302 -23.375 13.75 C-21.4156081 10.23660763 -19.63463985 8.09425143 -16.5625 5.5 C-16.06621094 5.03207031 -15.56992187 4.56414063 -15.05859375 4.08203125 C-10.34359862 0.31636399 -5.82437173 0.03316413 0 0 Z " fill="#263C51" transform="translate(281.5625,884.5)"/>
<path d="M0 0 C14.85 0 29.7 0 45 0 C45 4.62 45 9.24 45 14 C34.77 14 24.54 14 14 14 C14 18.95 14 23.9 14 29 C23.57 29 33.14 29 43 29 C43 33.62 43 38.24 43 43 C33.43 43 23.86 43 14 43 C14 48.28 14 53.56 14 59 C24.56 59 35.12 59 46 59 C46 63.62 46 68.24 46 73 C30.82 73 15.64 73 0 73 C0 48.91 0 24.82 0 0 Z " fill="#233A4F" transform="translate(610,886)"/>
<path d="M0 0 C5.28 0 10.56 0 16 0 C16.65226562 2.17335938 17.30453125 4.34671875 17.9765625 6.5859375 C18.85803092 9.51603073 19.74134883 12.44556436 20.625 15.375 C20.85209656 16.12831604 21.07919312 16.88163208 21.31317139 17.65777588 C24.18169619 27.16076587 27.0875931 36.64016271 30.37353516 46.00927734 C31.35022192 48.82755251 32 50.98882836 32 54 C32.66 54 33.32 54 34 54 C34.15021606 53.0112085 34.15021606 53.0112085 34.3034668 52.00244141 C35.48547487 44.84238184 37.41763372 38.21443825 39.8125 31.375 C42.57884836 23.29784107 45.20879494 15.21502699 47.5402832 7.00146484 C48.91547462 2.16905076 48.91547462 2.16905076 50 0 C55.61 0 61.22 0 67 0 C66.57332031 1.27746094 66.14664063 2.55492187 65.70703125 3.87109375 C64.61287089 7.15229883 63.52716825 10.43609298 62.44921875 13.72265625 C55.91109522 33.57806366 48.93664507 53.28122243 42 73 C35.73 73 29.46 73 23 73 C22.26136719 70.78410156 21.52273438 68.56820312 20.76171875 66.28515625 C20.50577942 65.51751953 20.24984009 64.74988281 19.98614502 63.95898438 C18.67806477 60.03554647 17.3709805 56.11178037 16.06542969 52.1875 C13.57350075 44.70011898 11.07756546 37.21433996 8.54573059 29.74034119 C7.52114052 26.71506293 6.5007488 23.68837607 5.48062134 20.66159058 C4.99497067 19.22476159 4.50716901 17.78865779 4.0171814 16.353302 C3.33416105 14.35190373 2.65851334 12.34815424 1.984375 10.34375 C1.40768066 8.64508789 1.40768066 8.64508789 0.81933594 6.91210938 C0 4 0 4 0 0 Z " fill="#243A50" transform="translate(459,886)"/>
<path d="M0 0 C0.75514893 0.00572021 1.51029785 0.01144043 2.28833008 0.01733398 C9.44614436 0.24753115 13.34997099 2.18800678 18.35546875 7.25 C23.43183011 12.84484958 25.11755952 16.96593064 24.92578125 24.56640625 C23.90891381 34.4841653 18.44523875 40.65918738 11.625 47.5 C11.13918457 47.98742676 10.65336914 48.47485352 10.15283203 48.97705078 C7.71912003 51.4154415 5.27585484 53.84138638 2.8125 56.25 C0.5991142 58.29940827 0.5991142 58.29940827 -0.375 60.5 C8.205 60.5 16.785 60.5 25.625 60.5 C25.625 65.12 25.625 69.74 25.625 74.5 C9.455 74.5 -6.715 74.5 -23.375 74.5 C-23.375 62.5 -23.375 62.5 -21.08349609 58.87792969 C-20.05171593 57.86130538 -18.98801195 56.87629776 -17.8984375 55.921875 C-17.05413681 55.11015839 -17.05413681 55.11015839 -16.19277954 54.28204346 C-14.40492027 52.5738182 -12.58089642 50.91189805 -10.75 49.25 C-8.37301965 47.02593978 -6.01053104 44.78672813 -3.6484375 42.546875 C-3.08512726 42.01607834 -2.52181702 41.48528168 -1.94143677 40.93840027 C5.23235778 34.28241989 5.23235778 34.28241989 9.3515625 25.63671875 C9.30128906 24.42435547 9.30128906 24.42435547 9.25 23.1875 C9.23839844 21.95580078 9.23839844 21.95580078 9.2265625 20.69921875 C8.78414351 18.36817424 8.78414351 18.36817424 6.86328125 16.73828125 C3.17555095 14.6981233 -0.2822862 14.6975071 -4.375 15.5 C-7.13069447 17.68159145 -8.81088747 19.37177494 -10.375 22.5 C-15.52964734 22.01675181 -19.19050319 19.31389239 -23.375 16.5 C-22.08964627 10.64449969 -18.97766675 7.12767437 -14.375 3.5 C-9.5083769 0.49166958 -5.57146138 -0.04866174 0 0 Z " fill="#0762C7" transform="translate(981.375,884.5)"/>
<path d="M0 0 C4.82625 -0.0825 9.6525 -0.165 14.625 -0.25 C16.13658691 -0.28641602 17.64817383 -0.32283203 19.20556641 -0.36035156 C20.40874512 -0.3703418 21.61192383 -0.38033203 22.8515625 -0.390625 C24.68968506 -0.4220459 24.68968506 -0.4220459 26.56494141 -0.45410156 C31.93715682 0.2560847 35.89676843 3.3078615 39.375 7.375 C43.37606997 13.00183455 43.06451878 19.40154902 42 26 C40.21874814 30.1225185 37.74813773 32.50124151 34 35 C33.01 35 32.02 35 31 35 C31.39380859 35.62567871 31.78761719 36.25135742 32.19335938 36.89599609 C33.96687322 39.71945112 35.73350944 42.54714609 37.5 45.375 C38.12003906 46.35984375 38.74007813 47.3446875 39.37890625 48.359375 C40.25869141 49.77089844 40.25869141 49.77089844 41.15625 51.2109375 C41.70087891 52.08024902 42.24550781 52.94956055 42.80664062 53.84521484 C44 56 44 56 44 58 C39.71 58 35.42 58 31 58 C29.32818524 55.04447033 27.66237821 52.08583038 26 49.125 C25.52304688 48.28324219 25.04609375 47.44148437 24.5546875 46.57421875 C24.10351562 45.76855469 23.65234375 44.96289062 23.1875 44.1328125 C22.76855469 43.38918457 22.34960938 42.64555664 21.91796875 41.87939453 C21 40 21 40 21 38 C17.7 38 14.4 38 11 38 C11 44.6 11 51.2 11 58 C7.37 58 3.74 58 0 58 C0 38.86 0 19.72 0 0 Z " fill="#253B52" transform="translate(1051,901)"/>
<path d="M0 0 C5.28 0 10.56 0 16 0 C17.99761796 3.80668525 19.99269218 7.61448759 21.98144531 11.42578125 C22.65901244 12.72244854 23.33804339 14.01835199 24.01855469 15.31347656 C24.995381 17.17314882 25.96694285 19.0354874 26.9375 20.8984375 C27.52402344 22.01911621 28.11054687 23.13979492 28.71484375 24.29443359 C30 27 30 27 30 29 C30.66 29 31.32 29 32 29 C32.226875 28.20851563 32.45375 27.41703125 32.6875 26.6015625 C34.38239596 21.95068727 36.65655637 17.7271096 39 13.375 C39.8960991 11.69545427 40.79194172 10.01577167 41.6875 8.3359375 C42.08324219 7.59907715 42.47898437 6.8622168 42.88671875 6.10302734 C43.95519087 4.08464601 44.97867773 2.04264454 46 0 C51.61 0 57.22 0 63 0 C61.43534652 3.91163371 59.80768983 7.31645693 57.76953125 10.97265625 C57.13080078 12.12056641 56.49207031 13.26847656 55.83398438 14.45117188 C55.50100342 15.04599365 55.16802246 15.64081543 54.82495117 16.25366211 C53.82997483 18.03127959 52.83938891 19.81128165 51.84960938 21.59179688 C51.52668411 22.17043488 51.20375885 22.74907288 50.87104797 23.34524536 C50.21800726 24.51716145 49.56794626 25.69074274 48.92082214 26.86593628 C47.37031748 29.65944689 45.76230263 32.3548624 43.98364258 35.01025391 C38.6828803 43.06589749 37.98105091 49.71566484 38.0625 59.25 C38.04935114 60.59248219 38.03309156 61.93493763 38.01367188 63.27734375 C37.97870029 66.51804368 37.98503563 69.75914593 38 73 C33.38 73 28.76 73 24 73 C24.13535156 70.31230469 24.13535156 70.31230469 24.2734375 67.5703125 C24.71684101 48.76562134 20.97557922 36.91343483 10.78417969 20.83349609 C8.24702783 16.80418787 5.93861788 12.65998888 3.625 8.5 C3.25052734 7.85313232 2.87605469 7.20626465 2.49023438 6.53979492 C0 2.21967011 0 2.21967011 0 0 Z " fill="#23394F" transform="translate(757,886)"/>
<path d="M0 0 C3.96 0 7.92 0 12 0 C12.01981934 1.21582764 12.03963867 2.43165527 12.06005859 3.68432617 C12.13624695 8.20390198 12.22494405 12.7231614 12.31738281 17.24243164 C12.35561789 19.19679509 12.39048027 21.15122759 12.421875 23.10571289 C12.46764435 25.91838222 12.52561923 28.73057839 12.5859375 31.54296875 C12.59748871 32.41398727 12.60903992 33.2850058 12.62094116 34.18241882 C12.72666438 38.54801595 12.97189014 42.02561628 15 46 C17.08153935 46.13536022 19.16561206 46.23215465 21.25 46.3125 C22.99023438 46.39951172 22.99023438 46.39951172 24.765625 46.48828125 C28.0729148 46.29155104 28.0729148 46.29155104 30.1640625 44.06054688 C32.69605685 39.83965843 32.60255094 36.38075086 32.609375 31.54296875 C32.62591125 30.64000565 32.64244751 29.73704254 32.65948486 28.80671692 C32.70792057 25.93357511 32.72932588 23.06096243 32.75 20.1875 C32.7781634 18.23499949 32.80809135 16.28252357 32.83984375 14.33007812 C32.91367837 9.55342898 32.96328007 4.77707281 33 0 C36.96 0 40.92 0 45 0 C45.12412058 6.11971742 45.21458556 12.23869311 45.2746582 18.359375 C45.29971505 20.43893202 45.33377021 22.51840174 45.37719727 24.59765625 C45.43823845 27.59657394 45.46629842 30.59432178 45.48828125 33.59375 C45.51408768 34.51490601 45.5398941 35.43606201 45.56648254 36.38513184 C45.56925365 42.84455002 44.0847277 46.97419638 40 52 C34.66617963 57.19345667 29.36921632 59.17063001 22.0625 59.4375 C15.53870364 59.24203045 11.06458097 57.82516058 6.25 53.38671875 C0.32736975 46.96579028 -0.2934109 40.66292939 -0.1953125 32.2265625 C-0.1924826 31.3028183 -0.18965271 30.3790741 -0.18673706 29.42733765 C-0.17559179 26.49309024 -0.15049765 23.5591543 -0.125 20.625 C-0.11496289 18.62891068 -0.10583832 16.63281654 -0.09765625 14.63671875 C-0.07567097 9.75769351 -0.04118017 4.87889946 0 0 Z " fill="#293F55" transform="translate(1105,901)"/>
<path d="M0 0 C2.84625 -0.0825 5.6925 -0.165 8.625 -0.25 C9.51010254 -0.28641602 10.39520508 -0.32283203 11.30712891 -0.36035156 C16.68827905 -0.43544301 19.75397618 0.38351283 24 4 C25.85726616 7.71453232 25.58501089 11.95579425 25 16 C22.80977082 18.82424288 21.16982793 20.41508603 18 22 C16.62451844 22.08308638 15.24514204 22.10736016 13.8671875 22.09765625 C13.14128418 22.09515869 12.41538086 22.09266113 11.66748047 22.09008789 C10.74596191 22.08098389 9.82444336 22.07187988 8.875 22.0625 C5.94625 22.041875 3.0175 22.02125 0 22 C0 14.74 0 7.48 0 0 Z " fill="#EFF0F2" transform="translate(553,899)"/>
<path d="M0 0 C3.85339314 0.0299875 5.43381696 0.12537126 8.8125 2.125 C11.39161853 5.03690802 12.6810985 6.70387013 13.125 10.625 C12.67859899 15.01460995 11.57294345 16.95548617 8.75 20.3125 C5.82327328 22.68552167 4.06690796 23.27216626 0.3125 23.75 C-3.91003788 23.23144272 -5.9740245 21.97899168 -9.25 19.3125 C-12.06454595 15.09068108 -12.05684081 11.27219791 -11.25 6.3125 C-8.8125 3.25 -8.8125 3.25 -6.25 1.3125 C-4.53310511 -0.40439489 -2.34121863 0.05946946 0 0 Z " fill="#F1F6FB" transform="translate(921.25,923.6875)"/>
<path d="M0 0 C2.68777492 2.33363442 3.71223423 4.38625432 4.82421875 7.74609375 C5.13037109 8.66583984 5.43652344 9.58558594 5.75195312 10.53320312 C6.06068359 11.49162109 6.36941406 12.45003906 6.6875 13.4375 C7.00783203 14.39205078 7.32816406 15.34660156 7.65820312 16.33007812 C9.01751632 20.4717808 10 23.59433364 10 28 C3.73 28 -2.54 28 -9 28 C-6.57711594 18.44306841 -3.35433983 9.2597148 0 0 Z " fill="#ECEEF0" transform="translate(212,904)"/>
<path d="M0 0 C3.83625 -0.1546875 3.83625 -0.1546875 7.75 -0.3125 C8.54889648 -0.35802002 9.34779297 -0.40354004 10.17089844 -0.45043945 C13.98073711 -0.52481288 15.65143358 -0.31338502 18.515625 2.26171875 C20.00508096 5.00937304 20.47422395 6.10182234 20 9.125 C19.9175 9.78757812 19.835 10.45015625 19.75 11.1328125 C18.66054009 13.84511372 17.59510922 14.63966049 15 16 C12.30796435 16.21479008 9.92275886 16.28526276 7.25 16.1875 C4.8575 16.125625 2.465 16.06375 0 16 C0 10.72 0 5.44 0 0 Z " fill="#F2F3F4" transform="translate(1062,912)"/>
<path d="M0 0 C0.66 0 1.32 0 2 0 C3.50499009 4.28993333 5.00314637 8.58222158 6.5 12.875 C6.92925781 14.09832031 7.35851562 15.32164062 7.80078125 16.58203125 C8.20683594 17.74863281 8.61289062 18.91523437 9.03125 20.1171875 C9.40830078 21.19597168 9.78535156 22.27475586 10.17382812 23.38623047 C11 26 11 26 11 28 C4.73 28 -1.54 28 -8 28 C-7.34008593 23.38060153 -6.82089693 19.96662556 -5.37109375 15.72265625 C-5.05849609 14.79775391 -4.74589844 13.87285156 -4.42382812 12.91992188 C-4.09833984 11.97697266 -3.77285156 11.03402344 -3.4375 10.0625 C-2.9434668 8.6074707 -2.9434668 8.6074707 -2.43945312 7.12304688 C-1.6317552 4.74677616 -0.81849052 2.37257031 0 0 Z " fill="#ECEEF0" transform="translate(851,904)"/>
<path d="M0 0 C0.33 0 0.66 0 1 0 C1.00423194 1.0252157 1.00846388 2.0504314 1.01282406 3.10671425 C1.11598523 28.04430672 1.22472957 52.98187006 1.33933926 77.91941261 C1.39463399 89.97898009 1.44810985 102.03855054 1.49731445 114.09814453 C1.5402022 124.60840723 1.5864918 135.11864848 1.63687855 145.628878 C1.66344247 151.19472346 1.68829464 156.76056477 1.70907402 162.32643509 C1.72868395 167.56467085 1.75284076 172.80286592 1.78049088 178.04106522 C1.78983824 179.96393086 1.79752179 181.88680543 1.80341911 183.80968475 C1.81171968 186.43506749 1.82600732 189.06035252 1.84178162 191.68569946 C1.84275972 192.44641207 1.84373783 193.20712468 1.84474558 193.99088919 C1.87652667 198.10471103 2.30418159 201.9533647 3 206 C2.5625 209.375 2.5625 209.375 2 212 C1.34 212 0.68 212 0 212 C0 142.04 0 72.08 0 0 Z " fill="#0D66C5" transform="translate(557,238)"/>
<path d="M0 0 C58.74 0 117.48 0 178 0 C177.34 2.31 176.68 4.62 176 7 C174 4 174 4 174 2 C87.87 1.505 87.87 1.505 0 1 C0 0.67 0 0.34 0 0 Z " fill="#294054" transform="translate(387,463)"/>
<path d="M0 0 C2.5 1.5625 2.5 1.5625 4 4 C3.93913078 7.46954545 3.6274029 9.91947278 1.875 12.9375 C-1.22289358 14.69297303 -3.52844534 14.48723574 -7 14 C-9.69500656 11.58140437 -10.80636871 9.99236035 -11.5 6.4375 C-10.19781462 0.08934627 -5.87567428 -0.83938204 0 0 Z " fill="#243B53" transform="translate(1032,946)"/>
<path d="M0 0 C0.33 0 0.66 0 1 0 C1 23.1 1 46.2 1 70 C4.63 70 8.26 70 12 70 C12 62.41 12 54.82 12 47 C12.33 47 12.66 47 13 47 C13.33 55.25 13.66 63.5 14 72 C9.38 72 4.76 72 0 72 C0 48.24 0 24.48 0 0 Z " fill="#172F46" transform="translate(539,887)"/>
<path d="M0 0 C2.01635978 3.02453967 3.03246502 5.63075348 4.1875 9.0625 C4.55230469 10.12597656 4.91710937 11.18945312 5.29296875 12.28515625 C6 15 6 15 5 17 C3.0625 17.5625 3.0625 17.5625 1 18 C0.34 18.33 -0.32 18.66 -1 19 C-1.02685412 16.68756208 -1.04632841 14.3750373 -1.0625 12.0625 C-1.07410156 10.77472656 -1.08570313 9.48695313 -1.09765625 8.16015625 C-1 5 -1 5 0 4 C0 2.68 0 1.36 0 0 Z " fill="#126CCB" transform="translate(558,577)"/>
<path d="M0 0 C4 4 4 4 4 6 C3.01 6 2.02 6 1 6 C1 18.87 1 31.74 1 45 C0.67 45 0.34 45 0 45 C0 30.15 0 15.3 0 0 Z " fill="#E4E6E9" transform="translate(687,914)"/>
<path d="M0 0 C-2.14684401 6.83086732 -7.64569195 10.64184228 -13 15 C-13.66 14.34 -14.32 13.68 -15 13 C-12.88094537 10.82722286 -10.75527122 8.66173092 -8.625 6.5 C-8.02171875 5.87996094 -7.4184375 5.25992188 -6.796875 4.62109375 C-6.21679688 4.03457031 -5.63671875 3.44804688 -5.0390625 2.84375 C-4.50490723 2.29912109 -3.97075195 1.75449219 -3.42041016 1.19335938 C-2 0 -2 0 0 0 Z " fill="#E2EEF9" transform="translate(956,754)"/>
<path d="M0 0 C0.515625 0.7425 1.03125 1.485 1.5625 2.25 C4.47534392 5.53628545 7.12433906 6.98763759 11 9 C11 9.66 11 10.32 11 11 C17.93 11.495 17.93 11.495 25 12 C25 12.33 25 12.66 25 13 C15.33257064 13.58004576 9.46592832 12.72160693 2 6.5 C0 4 0 4 0 0 Z " fill="#46596B" transform="translate(1108,947)"/>
<path d="M0 0 C0.33 0 0.66 0 1 0 C0.67 10.56 0.34 21.12 0 32 C-0.33 32 -0.66 32 -1 32 C-1.22630724 27.60489874 -1.42790777 23.2090006 -1.625 18.8125 C-1.68945312 17.56662109 -1.75390625 16.32074219 -1.8203125 15.03710938 C-1.89765625 13.2340332 -1.89765625 13.2340332 -1.9765625 11.39453125 C-2.02893066 10.28956299 -2.08129883 9.18459473 -2.13525391 8.04614258 C-1.99623333 4.91516829 -1.34010352 2.81055841 0 0 Z " fill="#657382" transform="translate(552,509)"/>
<path d="M0 0 C0.66 0.66 1.32 1.32 2 2 C0.625 4 0.625 4 -1 6 C-1.66 6 -2.32 6 -3 6 C-3.66 7.32 -4.32 8.64 -5 10 C-5.99 10 -6.98 10 -8 10 C-6.34908222 5.70761377 -3.26245434 3.1206085 0 0 Z " fill="#1E72CE" transform="translate(966,939)"/>
<path d="M0 0 C-0.33 0.99 -0.66 1.98 -1 3 C-3.9375 4.125 -3.9375 4.125 -7 5 C-9.33075929 5.95865509 -9.33075929 5.95865509 -11 9 C-11.35430394 5.81126451 -11.25953249 4.38410809 -9.4375 1.6875 C-6.185351 -0.56398777 -3.86806995 -0.29754384 0 0 Z " fill="#3D5269" transform="translate(1032,946)"/>
<path d="M0 0 C6.27 0 12.54 0 19 0 C19 0.33 19 0.66 19 1 C17.95199219 1.03738281 16.90398437 1.07476563 15.82421875 1.11328125 C14.44527695 1.17894515 13.06637229 1.24539235 11.6875 1.3125 C10.65206055 1.34633789 10.65206055 1.34633789 9.59570312 1.38085938 C5.54757542 1.55234057 5.54757542 1.55234057 2.14453125 3.54296875 C1.76683594 4.02378906 1.38914063 4.50460937 1 5 C0.34 5 -0.32 5 -1 5 C-0.67 3.35 -0.34 1.7 0 0 Z " fill="#30475C" transform="translate(203,886)"/>
<path d="M0 0 C0.99 0.33 1.98 0.66 3 1 C1.02 3.31 -0.96 5.62 -3 8 C-4.32 7.34 -5.64 6.68 -7 6 C-5.90716423 4.96704564 -4.80029421 3.94892165 -3.6875 2.9375 C-3.07261719 2.36902344 -2.45773437 1.80054688 -1.82421875 1.21484375 C-0.92123047 0.61349609 -0.92123047 0.61349609 0 0 Z " fill="#2A435B" transform="translate(734,518)"/>
<path d="M0 0 C0.80179687 0.00451172 1.60359375 0.00902344 2.4296875 0.01367188 C4.41149006 0.02546832 6.39325433 0.04340395 8.375 0.0625 C8.375 0.3925 8.375 0.7225 8.375 1.0625 C6.62593341 1.25851608 4.87568154 1.44397403 3.125 1.625 C2.15046875 1.72941406 1.1759375 1.83382812 0.171875 1.94140625 C-2.3881352 2.05224468 -4.20648159 1.83988092 -6.625 1.0625 C-6.625 1.7225 -6.625 2.3825 -6.625 3.0625 C-7.945 2.4025 -9.265 1.7425 -10.625 1.0625 C-7.31505287 -0.59247356 -3.63377 -0.03834335 0 0 Z " fill="#3A5166" transform="translate(281.625,884.9375)"/>
<path d="M0 0 C0.66 0.33 1.32 0.66 2 1 C0.90344712 2.31886772 -0.20253423 3.62990057 -1.3125 4.9375 C-1.92738281 5.66839844 -2.54226563 6.39929688 -3.17578125 7.15234375 C-5 9 -5 9 -8 10 C-8.66 10.66 -9.32 11.32 -10 12 C-10 9 -10 9 -7.8125 6.73828125 C-6.884375 5.93777344 -5.95625 5.13726563 -5 4.3125 C-4.071875 3.50425781 -3.14375 2.69601562 -2.1875 1.86328125 C-1.1046875 0.94095703 -1.1046875 0.94095703 0 0 Z " fill="#E1E4E8" transform="translate(748,528)"/>
<path d="M0 0 C0.66 0.33 1.32 0.66 2 1 C-4.92938497 9.81548975 -4.92938497 9.81548975 -11 11 C-7.33333333 7.33333333 -3.66666667 3.66666667 0 0 Z " fill="#E0E3E7" transform="translate(768,511)"/>
<path d="M0 0 C0.66 0.33 1.32 0.66 2 1 C0.35 3.64 -1.3 6.28 -3 9 C-3.66 8.34 -4.32 7.68 -5 7 C-5 5.68 -5 4.36 -5 3 C-2.625 1.1875 -2.625 1.1875 0 0 Z " fill="#374B5F" transform="translate(260,938)"/>
<path d="M0 0 C0.66 0 1.32 0 2 0 C2.92844389 4.33273814 2.92844389 7.66726186 2 12 C1.34 12 0.68 12 0 12 C0 8.04 0 4.08 0 0 Z " fill="#0961BD" transform="translate(557,438)"/>
<path d="M0 0 C10.16236162 0.84132841 10.16236162 0.84132841 14 3 C14.33 3.99 14.66 4.98 15 6 C10 4.33333333 5 2.66666667 0 1 C0 0.67 0 0.34 0 0 Z " fill="#4184D1" transform="translate(817,320)"/>
<path d="M0 0 C2.45823172 3.68734758 3.01242616 6.69699971 4 11 C3.01 11 2.02 11 1 11 C1 10.01 1 9.02 1 8 C0.34 8 -0.32 8 -1 8 C-0.67 5.36 -0.34 2.72 0 0 Z " fill="#3A83D0" transform="translate(558,577)"/>
<path d="M0 0 C0.66 1.32 1.32 2.64 2 4 C5.63 4 9.26 4 13 4 C13 4.33 13 4.66 13 5 C8.38 5 3.76 5 -1 5 C-0.67 3.35 -0.34 1.7 0 0 Z " fill="#3B5165" transform="translate(819,952)"/>
<path d="M0 0 C2.97 0 5.94 0 9 0 C8.34 2.31 7.68 4.62 7 7 C5 4 5 4 5 2 C3.35 1.67 1.7 1.34 0 1 C0 0.67 0 0.34 0 0 Z " fill="#24405F" transform="translate(556,463)"/>
<path d="M0 0 C2 1 2 1 2.625 2.5625 C3.16368951 6.06398181 3.05903219 9.45806833 3 13 C2.67 13 2.34 13 2 13 C1.855625 12.2575 1.71125 11.515 1.5625 10.75 C1.23236426 9.13600307 0.87096352 7.52686625 0.4375 5.9375 C0 4 0 4 0 0 Z " fill="#0458BA" transform="translate(944,923)"/>
<path d="M0 0 C1.32 0.33 2.64 0.66 4 1 C3.67 2.32 3.34 3.64 3 5 C1.35 4.67 -0.3 4.34 -2 4 C-1.34 2.68 -0.68 1.36 0 0 Z " fill="#1A6BC7" transform="translate(968,902)"/>
<path d="M0 0 C0.66 0.99 1.32 1.98 2 3 C1.01 4.485 1.01 4.485 0 6 C1.32 6 2.64 6 4 6 C3.67 6.99 3.34 7.98 3 9 C1.35 8.01 -0.3 7.02 -2 6 C-1.34 4.02 -0.68 2.04 0 0 Z " fill="#206DCD" transform="translate(960,895)"/>
<path d="M0 0 C0.66 0.99 1.32 1.98 2 3 C0.35 5.64 -1.3 8.28 -3 11 C-3.33 10.34 -3.66 9.68 -4 9 C-3.22265625 6.8359375 -3.22265625 6.8359375 -2.0625 4.375 C-1.68222656 3.55773437 -1.30195312 2.74046875 -0.91015625 1.8984375 C-0.60980469 1.27195312 -0.30945313 0.64546875 0 0 Z " fill="#DEECF7" transform="translate(569,454)"/>
<path d="M0 0 C0.66 0.33 1.32 0.66 2 1 C0.68 2.65 -0.64 4.3 -2 6 C-3.32 5.67 -4.64 5.34 -6 5 C-4.02 3.35 -2.04 1.7 0 0 Z " fill="#1E6CCB" transform="translate(849,500)"/>
<path d="M0 0 C0.33 0.99 0.66 1.98 1 3 C-0.65 4.32 -2.3 5.64 -4 7 C-4.66 6.34 -5.32 5.68 -6 5 C-4.02 3.35 -2.04 1.7 0 0 Z " fill="#2E465C" transform="translate(768,489)"/>
<path d="M0 0 C0.33 0 0.66 0 1 0 C1.25 7.625 1.25 7.625 -1 11 C-2.0257259 6.58937864 -2.03684712 4.07369424 0 0 Z " fill="#516273" transform="translate(552,509)"/>
<path d="M0 0 C0.33 0.99 0.66 1.98 1 3 C-1.97 5.475 -1.97 5.475 -5 8 C-5.66 7.67 -6.32 7.34 -7 7 C-4.69 4.69 -2.38 2.38 0 0 Z " fill="#196BCA" transform="translate(976,929)"/>
<path d="M0 0 C3.45925163 1.2491742 6.14693203 2.67527795 9 5 C6 6 6 6 3.375 4.75 C1 3 1 3 0 0 Z " fill="#3B4E63" transform="translate(293,918)"/>
<path d="M0 0 C0.66 0.33 1.32 0.66 2 1 C0.35 2.65 -1.3 4.3 -3 6 C-3.99 5.67 -4.98 5.34 -6 5 C-4.02 3.35 -2.04 1.7 0 0 Z " fill="#2174D1" transform="translate(861,702)"/>
</svg>
