<?xml version="1.0" encoding="UTF-8"?>
<svg version="1.1" xmlns="http://www.w3.org/2000/svg" width="1774" height="887">
<path d="M0 0 C585.42 0 1170.84 0 1774 0 C1774 292.71 1774 585.42 1774 887 C1188.58 887 603.16 887 0 887 C0 594.29 0 301.58 0 0 Z " fill="#FDFDFD" transform="translate(0,0)"/>
<path d="M0 0 C0.89976562 0.26167969 1.79953125 0.52335937 2.7265625 0.79296875 C4.85542052 1.45503628 6.92257804 2.19234497 9 3 C9.67417969 3.25007813 10.34835937 3.50015625 11.04296875 3.7578125 C31.35944804 11.97321943 48.00965111 28.381056 59 47 C59.80630859 48.3303125 59.80630859 48.3303125 60.62890625 49.6875 C72.76937624 70.62144324 74.47808562 98.87582169 69.171875 122.203125 C63.39343944 140.92525621 53.49600797 155.53126905 41.76953125 171.01171875 C38.62135037 175.16857837 35.51237773 179.35121676 32.4375 183.5625 C32.00655029 184.15200439 31.57560059 184.74150879 31.1315918 185.34887695 C30.23700724 186.57265546 29.34256033 187.7965346 28.44824219 189.02050781 C19.38332255 201.41065758 10.230113 213.7325915 1 226 C-1.4596027 229.26988117 -3.91762978 232.54094085 -6.375 235.8125 C-6.99842285 236.64096436 -7.6218457 237.46942871 -8.26416016 238.32299805 C-11.54321339 242.68929852 -14.79131577 247.07492657 -17.99609375 251.49609375 C-18.63691895 252.37740967 -19.27774414 253.25872559 -19.93798828 254.16674805 C-21.16723658 255.86076683 -22.3910732 257.55872864 -23.60888672 259.26098633 C-24.15689941 260.01532959 -24.70491211 260.76967285 -25.26953125 261.546875 C-25.99039917 262.54992676 -25.99039917 262.54992676 -26.72583008 263.57324219 C-27.14630615 264.04407227 -27.56678223 264.51490234 -28 265 C-28.66 265 -29.32 265 -30 265 C-31.62578612 262.97243915 -33.13185515 260.93562852 -34.625 258.8125 C-35.61911213 257.42696147 -36.61532903 256.04293147 -37.61328125 254.66015625 C-38.15549316 253.90879395 -38.69770508 253.15743164 -39.25634766 252.38330078 C-42.37455087 248.12120336 -45.59894124 243.94037247 -48.8125 239.75 C-55.74224951 230.69072798 -62.54208626 221.54366091 -69.28222656 212.34277344 C-72.18070814 208.38969936 -75.09093952 204.44529179 -78 200.5 C-81.52581331 195.71658745 -85.05038935 190.93228035 -88.5703125 186.14453125 C-89.1586084 185.34490967 -89.7469043 184.54528809 -90.35302734 183.72143555 C-91.52863848 182.12323287 -92.70345133 180.52444266 -93.87744141 178.92504883 C-96.63927596 175.1700595 -99.4208743 171.43485966 -102.265625 167.7421875 C-111.34710383 155.93049498 -118.74139201 144.04971599 -124 130 C-124.29648438 129.22140625 -124.59296875 128.4428125 -124.8984375 127.640625 C-132.82177683 105.51803401 -130.8080874 77.27468269 -121.11572266 56.06494141 C-116.95297861 47.42157105 -111.97613973 39.51876116 -106 32 C-105.44828125 31.29488281 -104.8965625 30.58976562 -104.328125 29.86328125 C-96.28307544 20.11344738 -85.88268646 13.22063108 -75 7 C-74.18015625 6.52691406 -73.3603125 6.05382812 -72.515625 5.56640625 C-67.51012167 2.87048919 -62.33485367 0.98484132 -56.9375 -0.75 C-56.28869873 -0.96100342 -55.63989746 -1.17200684 -54.97143555 -1.3894043 C-37.45182191 -6.75111451 -17.30291708 -5.25198918 0 0 Z " fill="#0760C1" transform="translate(350,328)"/>
<path d="M0 0 C9.384375 -0.020625 18.76875 -0.04125 28.4375 -0.0625 C31.40419678 -0.071604 34.37089355 -0.08070801 37.42749023 -0.09008789 C39.76285761 -0.0930068 42.09822549 -0.09555542 44.43359375 -0.09765625 C45.65921021 -0.10277222 46.88482666 -0.10788818 48.14758301 -0.11315918 C49.30471802 -0.11328003 50.46185303 -0.11340088 51.65405273 -0.11352539 C52.664431 -0.115746 53.67480927 -0.11796661 54.71580505 -0.12025452 C57 0 57 0 58 1 C58.09632909 2.33963101 58.12371971 3.68430073 58.12304783 5.02739048 C58.12503888 5.90023042 58.12702993 6.77307037 58.12908131 7.67236 C58.12616847 8.64218424 58.12325563 9.61200847 58.12025452 10.61122131 C58.12153615 12.14383509 58.12153615 12.14383509 58.12284368 13.70741075 C58.12450156 17.15920593 58.11897211 20.61095338 58.11352539 24.06274414 C58.11324356 26.5259145 58.11340117 28.98908494 58.1139679 31.45225525 C58.11419622 36.76974676 58.11134481 42.08722318 58.10573006 47.40471077 C58.09761725 55.09298794 58.09500006 62.78125918 58.09374207 70.46954017 C58.0915512 82.94201777 58.08489018 95.41448884 58.07543945 107.88696289 C58.06626623 120.00577766 58.05918496 132.12459066 58.05493164 144.2434082 C58.05466892 144.98989437 58.05440619 145.73638055 58.05413551 146.50548751 C58.05283051 150.25023468 58.05156679 153.99498186 58.05032361 157.73972905 C58.03994992 188.82649181 58.02151104 219.91324245 58 251 C38.86 251 19.72 251 0 251 C0 218 0 185 0 151 C-34.98 151 -69.96 151 -106 151 C-106 183.67 -106 216.34 -106 250 C-124.81 250 -143.62 250 -163 250 C-163 167.83 -163 85.66 -163 1 C-144.19 1 -125.38 1 -106 1 C-106 33.01 -106 65.02 -106 98 C-71.02 98 -36.04 98 0 98 C0 65.66 0 33.32 0 0 Z " fill="#203649" transform="translate(649,330)"/>
<path d="M0 0 C0.90234375 0.30679687 1.8046875 0.61359375 2.734375 0.9296875 C18.74643536 6.84263789 32.70784292 17.39074054 45 29 C45.81210938 29.73605469 46.62421875 30.47210938 47.4609375 31.23046875 C68.73253478 51.26066367 83.35895553 82.66259944 84.3359375 111.86328125 C84.81142244 150.52744291 74.32091033 183.75950942 47.0546875 211.97265625 C38.21178812 220.85761127 28.4503939 227.60783911 17.72412109 233.96923828 C16.33887455 234.79740465 14.97268808 235.65741237 13.61328125 236.52734375 C6.10105808 241.14684444 -2.62574358 243.42764308 -11 246 C-12.63001953 246.50080078 -12.63001953 246.50080078 -14.29296875 247.01171875 C-24.245108 249.88927664 -33.95047174 250.1865372 -44.2644043 250.18530273 C-46.29822889 250.18748469 -48.33150548 250.20568982 -50.36523438 250.22460938 C-68.35031689 250.25096758 -84.58383658 246.1183578 -101 239 C-101.99773437 238.57074219 -102.99546875 238.14148438 -104.0234375 237.69921875 C-133.21391895 224.14363901 -157.99800048 196.97278218 -169.25 166.875 C-170.19463556 164.25839952 -171.10056353 161.63289584 -172 159 C-172.34289062 158.02289063 -172.68578125 157.04578125 -173.0390625 156.0390625 C-174.87704711 150.45639895 -175 147.36071659 -175 141 C-158.5 141 -142 141 -125 141 C-123.68 144.3 -122.36 147.6 -121 151 C-112.13647695 171.1639758 -97.4497218 186.54833351 -77 195.3125 C-75.342856 195.90246424 -73.67561197 196.46473506 -72 197 C-71.1440625 197.29777344 -70.288125 197.59554687 -69.40625 197.90234375 C-61.61717421 200.17415752 -53.94600321 200.31368399 -45.875 200.375 C-44.23047852 200.39578613 -44.23047852 200.39578613 -42.55273438 200.41699219 C-35.25377179 200.37529637 -28.91775565 199.30591855 -22 197 C-20.97519531 196.66355469 -20.97519531 196.66355469 -19.9296875 196.3203125 C-10.72362229 193.13582453 -2.80404199 188.87326419 5 183 C6.07314453 182.20335937 6.07314453 182.20335937 7.16796875 181.390625 C18.12897781 172.55180731 24.69809948 160.77276034 30 148 C30.36867188 147.13375 30.73734375 146.2675 31.1171875 145.375 C36.85422387 129.94084905 35.99417531 108.87489936 29.23046875 94.0390625 C18.8464279 72.14824449 4.11413388 55.91903524 -19.08691406 47.21728516 C-30.49219276 43.22312885 -40.99340435 42.31699007 -53 43 C-54.28777344 43.03287109 -54.28777344 43.03287109 -55.6015625 43.06640625 C-75.10403059 44.198572 -93.4007001 56.71486625 -106.578125 70.19921875 C-116.37005382 81.52311062 -121.4098751 94.63950041 -125 109 C-141.83 109 -158.66 109 -176 109 C-175.31401583 100.76818999 -174.55697448 94.20839051 -172.125 86.5625 C-171.86847656 85.70462891 -171.61195313 84.84675781 -171.34765625 83.96289062 C-169.99661805 79.58050289 -168.51546286 75.86939471 -166 72 C-165.4121875 70.2675 -165.4121875 70.2675 -164.8125 68.5 C-155.47871214 42.68624294 -131.81513305 21.74724123 -109 8 C-108.06285156 7.4328125 -107.12570312 6.865625 -106.16015625 6.28125 C-73.72568506 -12.38881271 -34.48386049 -11.86782212 0 0 Z " fill="#203548" transform="translate(992,335)"/>
<path d="M0 0 C10.74817486 7.31987771 17.16820208 17.56710625 21.25 29.8125 C22.32731304 41.41884344 22.32255624 52.56905644 16.25 62.8125 C15.78078125 63.62847656 15.3115625 64.44445312 14.828125 65.28515625 C7.69997521 76.76301034 -2.43221215 84.1444732 -15.34375 88.12109375 C-29.74738891 91.04476816 -43.41174341 88.6093739 -55.890625 80.8828125 C-65.95487212 73.59585762 -72.58667528 62.77561893 -75.75 50.8125 C-77.32672251 33.860367 -74.72503993 21.44082937 -64.23046875 7.84375 C-47.76534345 -10.49714907 -20.38501898 -11.94217733 0 0 Z " fill="#FBFCFD" transform="translate(348.75,384.1875)"/>
<path d="M0 0 C8.17957739 4.929966 14.86357701 12.59329325 17.55273438 21.91625977 C19.90156967 32.85911414 19.06477394 43.79420286 13.04296875 53.265625 C6.65122512 61.82053999 -0.86773665 67.84192364 -11.4140625 70.640625 C-23.31076093 72.29394261 -33.23609315 71.20079181 -43.1875 64.25 C-50.63990354 58.25796645 -57.19473093 50.63945562 -59 41 C-59.74861818 28.76297199 -59.10761042 18.74859918 -50.9375 9.09765625 C-37.19281227 -5.7831851 -18.07187127 -10.36193527 0 0 Z " fill="#22374B" transform="translate(1199,485)"/>
<path d="M0 0 C5.28 0 10.56 0 16 0 C16 19.8 16 39.6 16 60 C24.25 60 32.5 60 41 60 C41 40.2 41 20.4 41 0 C46.28 0 51.56 0 57 0 C57 19.8 57 39.6 57 60 C64.92 60 72.84 60 81 60 C81 40.2 81 20.4 81 0 C86.61 0 92.22 0 98 0 C98 25.08 98 50.16 98 76 C65.66 76 33.32 76 0 76 C0 50.92 0 25.84 0 0 Z " fill="#263B4E" transform="translate(1307,378)"/>
<path d="M0 0 C5.61 0 11.22 0 17 0 C19.74411711 5.99640405 22.19837626 12.04841342 24.54296875 18.2109375 C26.17179314 22.47093974 27.86544688 26.7043048 29.5625 30.9375 C29.88766602 31.75057617 30.21283203 32.56365234 30.54785156 33.40136719 C32.47111082 38.20504264 34.40571393 43.0039643 36.3513031 47.79862976 C37.46149102 50.53702546 38.56751338 53.27709433 39.67306519 56.0173645 C40.22285729 57.37708395 40.77454476 58.73603861 41.32815552 60.09420776 C42.10892511 62.01014528 42.88322973 63.92858155 43.65625 65.84765625 C44.10806641 66.96148682 44.55988281 68.07531738 45.02539062 69.22290039 C46 72 46 72 46 75 C40.06 75 34.12 75 28 75 C24 62.25 24 62.25 24 60 C13.77 60 3.54 60 -7 60 C-7.33 61.65 -7.66 63.3 -8 65 C-9.22896369 68.38088404 -10.62523806 71.67396305 -12 75 C-17.61 75 -23.22 75 -29 75 C-26.95665259 67.86562108 -24.55296972 61.00843133 -21.796875 54.12109375 C-21.3959967 53.11015152 -20.99511841 52.09920929 -20.58209229 51.05763245 C-19.30861491 47.84936112 -18.0292858 44.64345895 -16.75 41.4375 C-15.907194 39.31459525 -15.06474332 37.1915494 -14.22265625 35.06835938 C-9.56576939 23.34330009 -4.83143883 11.65421393 0 0 Z " fill="#22374B" transform="translate(1447,378)"/>
<path d="M0 0 C5.61 0 11.22 0 17 0 C21.25571985 10.89313064 25.50826193 21.7874828 29.75524902 32.684021 C31.78133126 37.88070616 33.81246327 43.07535508 35.85076904 48.26725769 C36.97581516 51.13495182 38.09696076 54.00415955 39.21716309 56.87374878 C39.73757954 58.204146 40.25978707 59.53384404 40.78381348 60.86282349 C41.50631843 62.69580127 42.22209595 64.53142662 42.9375 66.3671875 C43.33839844 67.38925293 43.73929688 68.41131836 44.15234375 69.46435547 C45 72 45 72 45 75 C39.39 75 33.78 75 28 75 C23 62.25 23 62.25 23 60 C13.1 60 3.2 60 -7 60 C-7.66 62.64 -8.32 65.28 -9 68 C-9.99 70.31 -10.98 72.62 -12 75 C-17.61 75 -23.22 75 -29 75 C-28.1791919 70.07515142 -27.31051033 67.04055039 -25.3125 62.625 C-23.12396416 57.68554913 -21.11173184 52.73708514 -19.24609375 47.6640625 C-16.18425937 39.41039021 -12.95293411 31.22930301 -9.67578125 23.05908203 C-8.73436318 20.71099867 -7.79673452 18.36142484 -6.859375 16.01171875 C-6.25542997 14.50251546 -5.65127158 12.99339752 -5.046875 11.484375 C-4.76978699 10.78963074 -4.49269897 10.09488647 -4.20721436 9.37908936 C-2.91770266 6.17089741 -1.54858775 3.09717551 0 0 Z " fill="#21364A" transform="translate(1248,378)"/>
<path d="M0 0 C5.28 0 10.56 0 16 0 C16 9.9 16 19.8 16 30 C26.23 30 36.46 30 47 30 C47 20.1 47 10.2 47 0 C52.28 0 57.56 0 63 0 C63 24.75 63 49.5 63 75 C57.72 75 52.44 75 47 75 C47 65.1 47 55.2 47 45 C37.1 45 27.2 45 17 45 C17 54.9 17 64.8 17 75 C11.39 75 5.78 75 0 75 C0 50.25 0 25.5 0 0 Z " fill="#21364A" transform="translate(1142,378)"/>
<path d="M0 0 C1.48831242 0.00667405 2.97660807 0.01863442 4.46484375 0.03515625 C5.22345703 0.03966797 5.98207031 0.04417969 6.76367188 0.04882812 C8.64326246 0.06064945 10.52281274 0.07858547 12.40234375 0.09765625 C15.25968264 5.62884959 17.71834984 11.17330382 19.93359375 16.98828125 C20.41028503 18.22708038 20.41028503 18.22708038 20.89660645 19.49090576 C21.56402664 21.22805882 22.22948682 22.96596608 22.89306641 24.70458984 C23.89501563 27.32846557 24.90402929 29.94953954 25.9140625 32.5703125 C28.98737709 40.57360036 32.00666088 48.56313542 34.57739258 56.74584961 C35.61709481 59.7098779 36.9870474 62.37987882 38.5703125 65.0859375 C39.40234375 67.09765625 39.40234375 67.09765625 40.40234375 74.09765625 C34.79234375 74.09765625 29.18234375 74.09765625 23.40234375 74.09765625 C19.40234375 62.47265625 19.40234375 62.47265625 19.40234375 59.09765625 C9.50234375 59.09765625 -0.39765625 59.09765625 -10.59765625 59.09765625 C-11.58765625 62.39765625 -12.57765625 65.69765625 -13.59765625 69.09765625 C-14.25765625 70.74765625 -14.91765625 72.39765625 -15.59765625 74.09765625 C-21.20765625 74.09765625 -26.81765625 74.09765625 -32.59765625 74.09765625 C-30.3477058 65.09785443 -30.3477058 65.09785443 -29.06054688 61.91430664 C-28.77231552 61.1939624 -28.48408417 60.47361816 -28.18711853 59.73144531 C-27.87915848 58.97702148 -27.57119843 58.22259766 -27.25390625 57.4453125 C-26.92826187 56.63537842 -26.60261749 55.82544434 -26.2671051 54.9909668 C-25.21553679 52.37868323 -24.15673762 49.76940174 -23.09765625 47.16015625 C-22.37247828 45.36339643 -21.64778996 43.56643892 -20.92358398 41.76928711 C-19.48616936 38.20340359 -18.046339 34.63850973 -16.60498047 31.07421875 C-14.83901399 26.70244505 -13.08985796 22.32424636 -11.3515625 17.94140625 C-10.88878906 16.77601318 -10.42601562 15.61062012 -9.94921875 14.40991211 C-9.10789525 12.28891645 -8.26798617 10.16735903 -7.4296875 8.04516602 C-7.06359375 7.12533936 -6.6975 6.2055127 -6.3203125 5.2578125 C-6.00843994 4.47027588 -5.69656738 3.68273926 -5.37524414 2.87133789 C-3.97768047 -0.31651143 -3.86858808 0.10501053 0 0 Z " fill="#22384C" transform="translate(1514.59765625,480.90234375)"/>
<path d="M0 0 C37.27027027 0 37.27027027 0 46.3125 6.3125 C51.90961576 11.90961576 53.26878969 15.42995031 53.5625 23.3125 C53.33397816 31.01368608 51.81830912 36.90399567 46.49609375 42.61328125 C38.13153752 49.44601513 27.23134385 49.33004335 17 49 C17 57.25 17 65.5 17 74 C11.39 74 5.78 74 0 74 C0 49.58 0 25.16 0 0 Z " fill="#24394C" transform="translate(1305,481)"/>
<path d="M0 0 C5.28 0 10.56 0 16 0 C16.495 14.355 16.495 14.355 17 29 C23.97909223 21.298175 23.97909223 21.298175 30.625 13.375 C31.38425781 12.46878906 32.14351562 11.56257813 32.92578125 10.62890625 C35.01662124 8.11119709 35.01662124 8.11119709 36.41796875 5.52734375 C38.13427105 2.80145186 39.13841057 1.55256448 42 0 C48.60858982 -0.96882098 55.36422624 -0.48840798 62 0 C58.90359893 4.24443249 55.88927802 8.37548298 52.0625 12 C48.82565343 15.15102109 45.82054306 18.41310736 42.875 21.8359375 C39.31333034 25.9466979 35.64665814 29.96469576 32 34 C33.44716486 38.69678654 36.21062893 41.67765768 39.5625 45.125 C44.23950916 50.05451715 48.63635678 55.11084403 52.88671875 60.41796875 C55.65636879 63.80195891 58.59302009 67.01742711 61.56640625 70.22265625 C63 72 63 72 63 74 C45.37899133 75.45906441 45.37899133 75.45906441 40.53515625 72.48828125 C39 70.375 39 70.375 37.625 67.90234375 C35.52260106 64.14733796 32.83964521 61.152013 30 57.9375 C29.01994027 56.80155114 28.04076509 55.66483849 27.0625 54.52734375 C23.71863486 50.67592765 20.35868595 46.83849823 17 43 C16.67 53.23 16.34 63.46 16 74 C10.72 74 5.44 74 0 74 C0 49.58 0 25.16 0 0 Z " fill="#203649" transform="translate(1231,481)"/>
<path d="M0 0 C6.27 0 12.54 0 19 0 C21.14161416 4.49993927 23.27960933 9.0012472 25.40869141 13.50708008 C26.13415406 15.03964022 26.86168256 16.57122423 27.59130859 18.10180664 C28.63923055 20.301017 29.67969205 22.5036218 30.71875 24.70703125 C31.04685669 25.39150833 31.37496338 26.07598541 31.7130127 26.78120422 C33.08462345 29.70627225 34 31.72772367 34 35 C34.66 35 35.32 35 36 35 C36.10957031 34.30994873 36.21914062 33.61989746 36.33203125 32.90893555 C37.10373837 29.54823003 38.31707396 26.62164532 39.6875 23.45703125 C39.95006592 22.84736008 40.21263184 22.2376889 40.4831543 21.60954285 C41.31757558 19.67520118 42.15874182 17.74387654 43 15.8125 C43.56553643 14.50344187 44.130645 13.19419881 44.6953125 11.88476562 C48.75053197 2.49893606 48.75053197 2.49893606 50 0 C55.94 0 61.88 0 68 0 C62.25276711 12.95739779 56.30269029 25.80830211 50.25 38.625 C49.88069366 39.40790405 49.51138733 40.19080811 49.13088989 40.99743652 C47.06053882 45.38424707 44.97991071 49.76590581 42.88546753 54.14126587 C42.09255884 55.80570459 41.31216489 57.47609163 40.53344727 59.1472168 C38.35350042 63.72396824 36.40430785 67.25797659 32.4375 70.5625 C31.69371094 71.20316406 30.94992187 71.84382812 30.18359375 72.50390625 C25.09469103 75.99057842 18.94909467 75.36913574 13 75 C9.3125 74 9.3125 74 7 73 C7.4452885 67.72684667 8.08373163 62.98229776 10 58 C10.515625 58.165 11.03125 58.33 11.5625 58.5 C14.89215473 59.1830061 17.60454442 59.35741638 21 59 C24.08577504 56.91542329 24.08577504 56.91542329 26 54 C25.62701707 50.11403834 23.44588487 46.67652941 21.6875 43.25 C20.96586521 41.82566298 20.24453112 40.40117358 19.5234375 38.9765625 C19.12479492 38.1918457 18.72615234 37.40712891 18.31542969 36.59863281 C15.79405724 31.61765874 13.3064116 26.61976251 10.8125 21.625 C9.81913882 19.63795664 8.8256529 17.65097563 7.83203125 15.6640625 C5.22135417 10.44270833 2.61067708 5.22135417 0 0 Z " fill="#21364A" transform="translate(1363,481)"/>
<path d="M0 0 C6.13138404 2.20359756 10.62154921 6.86182348 13.96484375 12.375 C16.2487602 18.16666738 16.10259565 24.53072177 14.2265625 30.43359375 C13.28607446 32.42366644 12.23954795 34.18401891 11 36 C10.46375 36.886875 9.9275 37.77375 9.375 38.6875 C4.54818838 43.38729026 -1.28423973 46.26641375 -8.0625 46.5625 C-15.15239995 46.17233255 -22.04283754 43.09879567 -27 38 C-31.59336255 32.18274809 -31.66279743 25.75804879 -31.44140625 18.56640625 C-30.68906811 12.48778037 -28.51174279 9.18036564 -23.95703125 5.2265625 C-16.48176883 -0.57391435 -9.28478127 -1.2491996 0 0 Z " fill="#F9F9F9" transform="translate(1187,495)"/>
<path d="M0 0 C13.86 0 27.72 0 42 0 C42 4.62 42 9.24 42 14 C33.42 14 24.84 14 16 14 C16 33.8 16 53.6 16 74 C10.72 74 5.44 74 0 74 C0 49.58 0 25.16 0 0 Z " fill="#213649" transform="translate(1443,481)"/>
<path d="M0 0 C1.98 0 3.96 0 6 0 C6 81.51 6 163.02 6 247 C4.02 247 2.04 247 0 247 C0 165.49 0 83.98 0 0 Z " fill="#1E364C" transform="translate(762,332)"/>
<path d="M0 0 C4.95 0 9.9 0 15 0 C15 19.47 15 38.94 15 59 C14.67 59 14.34 59 14 59 C14 39.86 14 20.72 14 1 C10.04 1 6.08 1 2 1 C2 24.43 2 47.86 2 72 C32.03 72 62.06 72 93 72 C93 72.66 93 73.32 93 74 C62.31 74 31.62 74 0 74 C0 49.58 0 25.16 0 0 Z " fill="#162E42" transform="translate(1307,379)"/>
<path d="M0 0 C14.07253886 -0.58031088 14.07253886 -0.58031088 20 4 C21.6020886 7.20417721 21.49285215 10.52339432 21 14 C18.8755173 17.44312714 17.85147359 18.71617547 14 20 C9.33032246 20.13590447 4.67262015 20.04286807 0 20 C0 13.4 0 6.8 0 0 Z " fill="#EFF1F2" transform="translate(1321,495)"/>
<path d="M0 0 C0.66 0 1.32 0 2 0 C3.34146494 3.43438215 4.67175905 6.87298417 6 10.3125 C6.3815625 11.28896484 6.763125 12.26542969 7.15625 13.27148438 C7.5171875 14.20927734 7.878125 15.14707031 8.25 16.11328125 C8.58515625 16.97735596 8.9203125 17.84143066 9.265625 18.73168945 C10 21 10 21 10 24 C4.39 24 -1.22 24 -7 24 C-5.875 15 -5.875 15 -4.58984375 11.71875 C-4.18862305 10.67460937 -4.18862305 10.67460937 -3.77929688 9.609375 C-3.36260742 8.56523437 -3.36260742 8.56523437 -2.9375 7.5 C-2.65583984 6.77296875 -2.37417969 6.0459375 -2.08398438 5.296875 C-1.39741552 3.52808745 -0.69986318 1.76356959 0 0 Z " fill="#EFF0F2" transform="translate(1255,400)"/>
<path d="M0 0 C0.66 0 1.32 0 2 0 C3.33852796 3.62310328 4.66993718 7.24878144 6 10.875 C6.3815625 11.90753906 6.763125 12.94007813 7.15625 14.00390625 C7.5171875 14.99003906 7.878125 15.97617187 8.25 16.9921875 C8.58515625 17.90339355 8.9203125 18.81459961 9.265625 19.75341797 C10 22 10 22 10 24 C4.06 24 -1.88 24 -8 24 C-6.90828654 18.26850434 -5.43322617 13.36077953 -2.953125 8.0859375 C-1.75104796 5.45516234 -0.84994481 2.76232065 0 0 Z " fill="#EBEDEF" transform="translate(1518,502)"/>
<path d="M0 0 C2.72110953 2.33561901 3.5921395 4.2451956 4.5 7.6875 C5.4197589 11.01615126 6.42024263 14.22473485 7.6875 17.4375 C9 21 9 21 9 24 C3.39 24 -2.22 24 -8 24 C-6.88018794 16.16131558 -6.88018794 16.16131558 -5.125 12.5625 C-3.18380965 8.43924167 -1.55733814 4.28267989 0 0 Z " fill="#F1F3F4" transform="translate(1455,400)"/>
<path d="M0 0 C1.17571796 4.03103302 1.46004927 7.68039416 2 12 C15.53 12 29.06 12 43 12 C43 12.33 43 12.66 43 13 C28.48 13 13.96 13 -1 13 C-1 3 -1 3 0 0 Z " fill="#253A4E" transform="translate(818,429)"/>
<path d="M0 0 C8.25 0 16.5 0 25 0 C24.01 1.485 24.01 1.485 23 3 C20.75341797 3.34057617 20.75341797 3.34057617 17.9921875 3.29296875 C17.00605469 3.28330078 16.01992188 3.27363281 15.00390625 3.26367188 C13.97136719 3.23853516 12.93882812 3.21339844 11.875 3.1875 C10.31458984 3.16719727 10.31458984 3.16719727 8.72265625 3.14648438 C6.14792373 3.11105228 3.5742167 3.06165221 1 3 C0.67 2.01 0.34 1.02 0 0 Z " fill="#D9DBE0" transform="translate(935,585)"/>
<path d="M0 0 C9.9 0 19.8 0 30 0 C29.67 0.66 29.34 1.32 29 2 C17.615 1.505 17.615 1.505 6 1 C6 1.66 6 2.32 6 3 C3.69 3.66 1.38 4.32 -1 5 C-0.67 3.35 -0.34 1.7 0 0 Z " fill="#E0E3E7" transform="translate(1504,540)"/>
<path d="M0 0 C1.98 1.65 3.96 3.3 6 5 C5.01 5.33 4.02 5.66 3 6 C3 5.34 3 4.68 3 4 C2.34 4 1.68 4 1 4 C1 13.24 1 22.48 1 32 C0.67 32 0.34 32 0 32 C0 21.44 0 10.88 0 0 Z " fill="#DBDEE3" transform="translate(1247,523)"/>
<path d="M0 0 C2.31309705 0.11341637 4.62550185 0.24103807 6.9375 0.375 C8.86916016 0.47941406 8.86916016 0.47941406 10.83984375 0.5859375 C12.40412109 0.79089844 12.40412109 0.79089844 14 1 C14.33 1.66 14.66 2.32 15 3 C9.72 3 4.44 3 -1 3 C-0.67 2.01 -0.34 1.02 0 0 Z " fill="#152B3F" transform="translate(1220,450)"/>
<path d="M0 0 C0.99 0.33 1.98 0.66 3 1 C2.0925 1.721875 1.185 2.44375 0.25 3.1875 C-1.92307318 4.98131041 -3.46083463 6.57604329 -5.25 8.8125 C-5.8275 9.534375 -6.405 10.25625 -7 11 C-7.66 11 -8.32 11 -9 11 C-7.59155282 7.78475695 -5.89655214 5.67816132 -3.375 3.25 C-2.74335937 2.63640625 -2.11171875 2.0228125 -1.4609375 1.390625 C-0.73777344 0.70226562 -0.73777344 0.70226562 0 0 Z " fill="#34495C" transform="translate(858,361)"/>
<path d="M0 0 C-3.0684847 2.97550031 -4.46236331 3.96474513 -8.8125 4.25 C-9.864375 4.1675 -10.91625 4.085 -12 4 C-4.75 -1.69642857 -4.75 -1.69642857 0 0 Z " fill="#3B5064" transform="translate(898,338)"/>
<path d="M0 0 C0 0.66 0 1.32 0 2 C-2.97 1.505 -2.97 1.505 -6 1 C-6.33 1.99 -6.66 2.98 -7 4 C-9.64 3.67 -12.28 3.34 -15 3 C-10.12206417 -0.25195722 -5.77608621 -0.11325659 0 0 Z " fill="#3F5569" transform="translate(930,328)"/>
<path d="M0 0 C0.66 0.99 1.32 1.98 2 3 C0.02 5.31 -1.96 7.62 -4 10 C-4.99 9.34 -5.98 8.68 -7 8 C-6.21625 7.236875 -5.4325 6.47375 -4.625 5.6875 C-1.92742283 3.09108195 -1.92742283 3.09108195 0 0 Z " fill="#2F4558" transform="translate(1199,528)"/>
<path d="M0 0 C0.79539539 2.72706989 1.1543515 5.37118364 1.4375 8.1875 C1.623125 9.445625 1.80875 10.70375 2 12 C2.66 12.33 3.32 12.66 4 13 C2.35 13 0.7 13 -1 13 C-1.02708567 11.39592672 -1.04643483 9.7917215 -1.0625 8.1875 C-1.07410156 7.29417969 -1.08570313 6.40085937 -1.09765625 5.48046875 C-1 3 -1 3 0 0 Z " fill="#415467" transform="translate(818,429)"/>
<path d="M0 0 C5.61 0.66 11.22 1.32 17 2 C17 2.33 17 2.66 17 3 C15.10590022 3.22354607 13.2095652 3.42819951 11.3125 3.625 C9.72888672 3.79902344 9.72888672 3.79902344 8.11328125 3.9765625 C4.86283654 4.0010326 2.89769204 3.40852563 0 2 C0 1.34 0 0.68 0 0 Z " fill="#1C73CD" transform="translate(307,471)"/>
<path d="M0 0 C0.99 0 1.98 0 3 0 C2.67 1.65 2.34 3.3 2 5 C1.34 5 0.68 5 0 5 C-0.33 6.32 -0.66 7.64 -1 9 C-1.66 9 -2.32 9 -3 9 C-2.01 6.03 -1.02 3.06 0 0 Z " fill="#374C5F" transform="translate(1489,535)"/>
<path d="M0 0 C0.66 0.66 1.32 1.32 2 2 C-1.96 3.98 -1.96 3.98 -6 6 C-6.99 5.34 -7.98 4.68 -9 4 C-6.03 2.68 -3.06 1.36 0 0 Z " fill="#1C6FCA" transform="translate(348,465)"/>
<path d="M0 0 C1.8871875 0.061875 1.8871875 0.061875 3.8125 0.125 C3.4825 1.115 3.1525 2.105 2.8125 3.125 C-0.4875 2.795 -3.7875 2.465 -7.1875 2.125 C-4.09861478 0.06574319 -3.47814073 -0.1140374 0 0 Z " fill="#3E8AD7" transform="translate(305.1875,324.875)"/>
<path d="M0 0 C0.99 0.66 1.98 1.32 3 2 C-3.625 5.125 -3.625 5.125 -7 4 C-4.69 2.68 -2.38 1.36 0 0 Z " fill="#2A4257" transform="translate(1162,483)"/>
<path d="M0 0 C2 2 2 2 2 5 C-0.64 5 -3.28 5 -6 5 C-2.25 2 -2.25 2 0 2 C0 1.34 0 0.68 0 0 Z " fill="#2F475D" transform="translate(1491,448)"/>
<path d="M0 0 C1.5 1.3125 1.5 1.3125 3 3 C3 3.99 3 4.98 3 6 C1.35 6 -0.3 6 -2 6 C-1.34 4.02 -0.68 2.04 0 0 Z " fill="#D7DBDF" transform="translate(1455,400)"/>
<path d="M0 0 C3.16115776 1.36983503 3.9927092 1.9890638 6 5 C4.68 5 3.36 5 2 5 C1.34 4.34 0.68 3.68 0 3 C0 2.01 0 1.02 0 0 Z " fill="#324659" transform="translate(1202,488)"/>
<path d="M0 0 C-3.42346555 3.14958831 -6.44262737 3.56179109 -11 4 C-7.04396675 0.96704118 -5.03239385 -0.13243142 0 0 Z " fill="#273E52" transform="translate(890,342)"/>
<path d="M0 0 C1.27875 -0.061875 2.5575 -0.12375 3.875 -0.1875 C4.95394531 -0.23970703 4.95394531 -0.23970703 6.0546875 -0.29296875 C6.69664062 -0.19628906 7.33859375 -0.09960938 8 0 C8.66 0.99 9.32 1.98 10 3 C8.72125 3.061875 7.4425 3.12375 6.125 3.1875 C5.40570312 3.22230469 4.68640625 3.25710938 3.9453125 3.29296875 C3.30335938 3.19628906 2.66140625 3.09960938 2 3 C1.34 2.01 0.68 1.02 0 0 Z " fill="#253C50" transform="translate(952,327)"/>
<path d="M0 0 C0.99 0 1.98 0 3 0 C3.33 1.98 3.66 3.96 4 6 C3.01 6 2.02 6 1 6 C1 5.34 1 4.68 1 4 C0.34 3.67 -0.32 3.34 -1 3 C-0.67 2.01 -0.34 1.02 0 0 Z " fill="#2F475B" transform="translate(1289,447)"/>
<path d="M0 0 C1 2 1 2 0.44140625 3.9453125 C0.15136719 4.66460937 -0.13867188 5.38390625 -0.4375 6.125 C-0.72496094 6.84945313 -1.01242187 7.57390625 -1.30859375 8.3203125 C-1.53675781 8.87460937 -1.76492188 9.42890625 -2 10 C-2.33 10 -2.66 10 -3 10 C-2.88637738 8.5199159 -2.75877092 7.04089926 -2.625 5.5625 C-2.55539062 4.73878906 -2.48578125 3.91507812 -2.4140625 3.06640625 C-2.27742188 2.38449219 -2.14078125 1.70257813 -2 1 C-1.34 0.67 -0.68 0.34 0 0 Z " fill="#485968" transform="translate(1452,406)"/>
<path d="M0 0 C2 3 2 3 1.625 5.1875 C1.41875 5.785625 1.2125 6.38375 1 7 C0.01 7 -0.98 7 -2 7 C-1.34 4.69 -0.68 2.38 0 0 Z " fill="#374E62" transform="translate(1236,407)"/>
</svg>
